<svg width="40" height="40" viewBox="0 0 40 40" fill="none" xmlns="http://www.w3.org/2000/svg">
<g clip-path="url(#clip0)">
<path fill-rule="evenodd" clip-rule="evenodd" d="M14.2158 39.1469C16.0475 39.7008 17.9887 39.9999 19.9998 39.9999C23.9448 39.9999 27.6185 38.8535 30.7166 36.8834L14.2158 16.4521V39.1469Z" fill="#B8D433"/>
<mask id="mask0" mask-type="alpha" maskUnits="userSpaceOnUse" x="9" y="0" width="32" height="32">
<path fill-rule="evenodd" clip-rule="evenodd" d="M9.19507 0H40.0001V31.0127H9.19507V0Z" fill="white"/>
</mask>
<g mask="url(#mask0)">
<path fill-rule="evenodd" clip-rule="evenodd" d="M14.2161 3.18489L36.6934 31.013C38.7812 27.8547 40.0001 24.0694 40.0001 20.0007C40.0001 8.9547 31.0459 0 20 0C16.0185 0 12.3118 1.16878 9.19507 3.17463H14.2161V3.18489Z" fill="#B8D433"/>
</g>
<path fill-rule="evenodd" clip-rule="evenodd" d="M0 19.9994C0 25.4435 2.17862 30.3782 5.70757 33.9848V6.01465C2.17862 9.62168 0 14.5556 0 19.9994" fill="#B8D433"/>
</g>
<defs>
<clipPath id="clip0">
<rect width="40" height="40" fill="white"/>
</clipPath>
</defs>
</svg>
